<?xml version="1.0" encoding="UTF-8" standalone="no"?>
<svg width="133px" height="39px" viewBox="0 0 133 39" version="1.1" xmlns="http://www.w3.org/2000/svg" xmlns:xlink="http://www.w3.org/1999/xlink">
    <!-- Generator: Sketch 41.2 (35397) - http://www.bohemiancoding.com/sketch -->
    <title>jagex</title>
    <desc>Created with Sketch.</desc>
    <defs></defs>
    <g id="Page-1" stroke="none" stroke-width="1" fill="none" fill-rule="evenodd">
        <g id="jagex" fill="#80807C">
            <g id="Symbols">
                <g id="JLogo-landscape">
                    <g id="Group">
                        <path d="M55.7588816,23.0892519 C56.1833292,23.0892519 56.5357552,23.0256963 56.8151993,22.8966593 C57.0941632,22.7681037 57.3174303,22.5851407 57.4850007,22.3501778 C57.6540116,22.1152148 57.7706866,21.8349926 57.8374267,21.5095111 C57.9046469,21.1845111 57.938257,20.8262889 57.938257,20.434363 L57.938257,13.8111037 L60.4695783,13.8111037 L60.4695783,20.2148074 C60.4695783,20.8315852 60.418683,21.4339185 60.3183329,22.0222889 C60.2179827,22.6111407 60.0139213,23.1316222 59.707109,23.5861407 C59.3993365,24.0392148 58.9638455,24.4065852 58.3991957,24.6868074 C57.8345458,24.9665481 57.0888816,25.1071407 56.1612426,25.1071407 C55.9711054,25.1071407 55.7646433,25.0960667 55.5413762,25.0729556 C55.3171487,25.0512889 55.0886,25.0171037 54.8542895,24.9723259 C54.6194989,24.9270667 54.387109,24.8683259 54.1585603,24.7961037 C53.9290513,24.7234 53.7134664,24.6362519 53.5127661,24.5351407 L53.5127661,22.4339556 C53.8810368,22.6477333 54.2704339,22.8090296 54.6775964,22.9212148 C55.0857191,23.0334 55.4463076,23.0892519 55.7588816,23.0892519" id="Fill-1"></path>
                        <path d="M75.9001711,23.1571407 L71.6595357,23.1571407 L70.8874635,24.9054 L68.4055971,24.9054 L73.6535755,13.609363 L74.0213661,13.609363 L79.1857993,24.9054 L76.6535177,24.9054 L75.9001711,23.1571407 Z M72.4128823,21.4421037 L75.1631495,21.4421037 L73.838431,18.3659185 L73.771691,18.3659185 L72.4128823,21.4421037 Z" id="Fill-3"></path>
                        <path d="M86.6620318,19.4417889 C86.6620318,18.6357889 86.8022339,17.8760111 87.0802375,17.1639 C87.3606419,16.4527519 87.7625227,15.8316407 88.288761,15.2986407 C88.8125986,14.7661222 89.4507105,14.3457889 90.1997357,14.0381222 C90.9473206,13.7294926 91.7914144,13.5759 92.7300968,13.5759 C93.1545444,13.5759 93.6601365,13.6177889 94.2468729,13.7010852 C94.8345697,13.7858259 95.3785733,13.9451963 95.8822448,14.1806407 L95.8822448,16.3482704 C95.3886563,16.0906778 94.8869054,15.9096407 94.373631,15.8027519 C93.8598765,15.6963444 93.3782917,15.6429 92.9312773,15.6429 C92.394956,15.6429 91.8994469,15.7305296 91.4466708,15.9033815 C90.9958152,16.0776778 90.6040173,16.3290111 90.2746383,16.6602704 C89.9442989,16.9910481 89.6840606,17.3911593 89.4944036,17.8620481 C89.3042664,18.3324556 89.2106383,18.8707519 89.2106383,19.4759741 C89.2106383,19.9796037 89.2792989,20.4533815 89.4195011,20.895863 C89.5577827,21.3393074 89.7709668,21.7230481 90.0556924,22.0480481 C90.3423386,22.3730481 90.6995661,22.6301593 91.1297755,22.8213074 C91.5580643,23.0110111 92.0698982,23.1068259 92.6633567,23.1068259 C92.8967069,23.1068259 93.1545444,23.0846778 93.4349487,23.0394185 C93.7134325,22.9946407 93.9530245,22.9330111 94.1537249,22.8540481 L94.1537249,19.1894926 L96.3671906,19.1894926 L96.3671906,24.4506407 C95.8188657,24.6764556 95.2057213,24.8382333 94.5234361,24.9393444 C93.841631,25.0390111 93.1545444,25.0905296 92.461696,25.0905296 C91.5114903,25.0905296 90.672678,24.949937 89.9476599,24.6701963 C89.2207213,24.3899741 88.6157394,23.9980481 88.1283928,23.4929741 C87.6424866,22.9893444 87.2751762,22.3923074 87.031743,21.7028259 C86.7835083,21.0133444 86.6620318,20.2598259 86.6620318,19.4417889" id="Fill-4"></path>
                        <polygon id="Fill-6" points="113.665017 24.9052074 105.854028 24.9052074 105.854028 13.8109111 113.346201 13.8109111 113.346201 15.7440593 108.352219 15.7440593 108.352219 18.1976889 112.826205 18.1976889 112.826205 20.0643926 108.352219 20.0643926 108.352219 22.9725407 113.665017 22.9725407"></polygon>
                        <path d="M127.390329,19.5767963 L124.575242,24.9053519 L121.891715,24.9053519 L125.178304,19.1737963 L122.109701,13.8274259 L124.792268,13.8274259 L127.390329,18.803537 L129.971105,13.8274259 L132.669997,13.8274259 L129.569224,19.1737963 C130.105065,20.1367593 130.655791,21.0925 131.219961,22.0390926 C131.78461,22.9866481 132.334856,23.9419074 132.871657,24.9053519 L130.172766,24.9053519 L127.390329,19.5767963 Z" id="Fill-7"></path>
                        <polygon id="Fill-9" points="29.0425906 -9.62962963e-05 27.6631357 2.77131111 11.6560816 34.7257926 6.39657978 34.7257926 14.0956953 19.3516074 6.40810325 3.98079259 16.079652 3.98079259 14.1105798 0.0215703704 9.60288809e-05 0.0215703704 9.67692635 19.3414963 9.60288809e-05 38.6614222 14.1105798 38.6826074 31.4951682 3.95671852 36.7556303 3.95671852 29.0550744 19.3304222 36.7455473 34.7036444 27.0725581 34.7036444 29.0425906 38.6614222 43.1530744 38.6614222 33.4757639 19.3414963 43.1530744 0.0215703704"></polygon>
                    </g>
                </g>
            </g>
        </g>
    </g>
</svg>