<?xml version="1.0" encoding="utf-8"?>
<!-- Generator: Adobe Illustrator 19.2.0, SVG Export Plug-In . SVG Version: 6.00 Build 0)  -->
<svg version="1.1" id="Layer_1" xmlns="http://www.w3.org/2000/svg" xmlns:xlink="http://www.w3.org/1999/xlink" x="0px" y="0px"
	 viewBox="0 0 141 39" style="enable-background:new 0 0 141 39;" xml:space="preserve">
<style type="text/css">
	.st0{fill:#80807C;}
</style>
<g>
	<path class="st0" d="M135.2,12.9L135.2,12.9c-0.5-0.5-1.1-1-1.7-1.5l-0.3-0.3c-0.7-0.8-1.7-2.3-2.4-3l0.2-1.1c0,0,1.1-0.3,2.2,0
		c0,0-3.4-1.9-9.1-3.1c-1.4-0.6-2.9-1.1-4.4-1.4c-1.8-0.5-3.7-0.7-5.5-0.9c-0.9-0.1-1.8-0.1-2.7-0.1c-0.9,0-1.8,0-2.6,0
		c-0.4,0-1.1,0-1.9,0.1C92.7,1.9,81.3,8.1,74.3,17c-0.2,0.2-0.3,0.4-0.5,0.6c-0.5-0.3-1-0.6-1.5-1c0.8,0.5,1.4,0.9-0.1-0.1
		c-1.6-1-0.9-0.5-0.1,0c-2.2-1.4-7-3.6-3.9-6.6c1.9-1.9,6.2-0.4,6.7,2.6l0.5,2.4V8.2c-0.2,0-0.1,0-0.2,0c0,0,0,0,0,0
		C71,8.1,64.8,7.3,64.1,12.9c-0.5,4.3,4,5.6,7.2,7.7c-2.1,2.6-4.3,5.2-6.9,7.4c-0.5-0.5-0.9-1.2-1-1.8c-0.1-0.5-0.2-1-0.2-1.5
		c0-4.4,4.7-3.3,4.7-3.3l-3.1-1.8c-2.6,2-2.8,4.1-2.7,5.1c0,0.5,0.1,1.1,0.2,1.6c0.2,1,0.7,1.8,1.3,2.4c-2,1.7-4.3,3.2-6.9,4.5
		c-4,1.6-7.5,2.8-13.2,2.8c-5.4,0-10.5-1-15.4-3.3c-6.3-3-10.8-7.4-13.6-12.5c0.9-0.5,4.1-2.5,4.1-6.6c0-6.4-7.7-5.9-7.7-5.9h-0.6
		l1.2,1.2c3.1,0.8,3.1,5.2,3.1,5.2c0,3.6-1.6,5.1-3,5.9c-1.1,0.6-1.8,0.4-1.8,0.4s0.2,1.5,1.1,3c3.1,4.7,6.6,7.3,9.6,8.9
		c8,4.9,18.3,6.7,27.5,5.1c0,0,0,0,0.1,0c0.1,0,0.2-0.1,0.2-0.1c1.5-0.4,3-0.9,4.5-1.5c4.7-1.6,8.3-3.8,11.4-6.5
		c1.7,1.4,4,2,6.2,1.9c2.9-0.1,6.5-2.1,7.5-5c1.3-3.8-0.8-6.2-3.5-8.1c0.1-0.2,0.3-0.3,0.4-0.5c7-8.8,18.4-14.9,32.4-15.2
		c1,0,2,0,2.4,0c1.5,0.1,3,0.2,4.5,0.4c1.7,0.3,3.5,0.6,5.2,1.2c1.7,0.5,3.4,1.3,4.9,2.1c0.7,0.4,2.5,1.6,3.1,2.2
		c0.4,0.3,0.8,0.7,1.1,1c1.3,1.2,2.4,2.6,3.2,4c0.9,1.4,1.9,4,2.2,5.6c0.3,1.3,0.4,2.6,0.4,3.9c-0.1,3.2-1.1,6.3-2.9,8.9
		c-0.4,0.6-0.9,1.1-1.3,1.6c-0.6,0.7-1.3,1.3-2,1.9c-1.8,1.3-3.7,1.7-4.5,2c-1.5,0.5-3.1,0.7-4.6,0.9c-1.5,0.2-3,0.2-4.4,0.1
		c-1.4-0.1-2.8-0.3-4-0.6c-1.3-0.3-2.4-0.6-3.5-1.1c-1.1-0.4-1.7-0.8-2.3-1.1c0.1-0.1,0.9-0.6,1.7-0.4c0,0-3.5-1.2-7.3-3.1l6.1,5.5
		l-0.5-1.9c0.6,0.3,1.2,0.7,2.2,1.1c2.2,0.9,4.8,1.5,7.6,1.6c1.4,0.1,2.9,0.1,4.5,0c1.3,0,4.5-0.5,5.8-0.9c1.3-0.4,2.6-0.8,3.9-1.4
		c1.6-0.8,3.1-1.8,4.5-3.1c0,0,0,0,0,0l2.1-0.1c0,0,0.6,0.9,0.6,1.9c0,0,1.3-3,1-7.5c0.2-0.9,0.6-3.5,0.6-4.4c0-0.4,0-0.8,0-1.2
		c0-0.4,0-0.7,0-1.1l1.4-1.2c0,0,1.1,0.4,1.8,1.2C140.5,20.6,139.4,16.8,135.2,12.9z M65.3,28.7c-0.1,0-0.1-0.1-0.2-0.1
		c2.6-2.3,4.8-4.8,6.9-7.5c1.1,0.8,2,1.7,2.3,3C75.9,29.8,68.9,31,65.3,28.7z"/>
	<path class="st0" d="M128.8,14.1v-2.4l-10.5,0c1.2,0.5,1.1,1.7,1.1,1.7l0,4.7c-0.4,0.5-0.8,0.8-0.8,0.8s0.5,0.3,0.8,0.8l0,5.3
		c0,0.2,0,0.5-0.1,0.7c-0.1,0.3-0.4,0.8-1,1.2h10.4v-2.5c-0.2,1.1-1.5,1.1-1.5,1.1l-5,0l0-5.8l2.9,0c0,0,0.8-0.1,1.2,0.8v-2.8
		c-0.4,0.9-1.3,0.8-1.3,0.8l-2.8,0l0-5.4l5,0C127.3,13.1,128.4,13,128.8,14.1z"/>
	<path class="st0" d="M99.8,26.9h6c-1.2-0.8-1.5-1.3-1.8-1.7c-0.1-0.2-1.2-2.6-2.3-5.4c0-0.1,0-0.6,0.6-1.4l-1.2,0
		c-1.4-3.4-2.8-6.7-2.8-6.7h-0.1h-1h-2.3c1.2,0.6,1.5,1.9,1.5,1.9l-2,4.8l-1.2,0c0.6,0.8,0.6,1.4,0.6,1.4l-1,2.3
		c-0.2,0.6-1.7,2.2-2.5,2.7c-0.8,0.5-2.1,1.1-3.9,1.1c-1.7,0-2.8-0.3-3.7-1.1c-0.5-0.4-0.9-1-1.2-1.6c-0.4-0.8-0.5-1.7-0.6-2.5
		c0-0.3,0-0.6,0-0.9c0.4-0.5,0.8-0.8,0.8-0.8s-0.5-0.3-0.8-0.8c0-0.1,0-0.3,0-0.4c0.1-0.9,0.3-1.8,0.7-2.6c0.3-0.6,0.7-1.1,1.1-1.5
		c0.9-0.8,2-1.1,3.7-1.1c1.8,0,3.2,0.5,3.8,1.2c0.4,0.4,0.6,1,0.8,1.6V12c-0.6-0.1-1.1-0.2-1.6-0.3c-0.9-0.1-1.6-0.2-2.9-0.2
		c-2.6,0-4.3,0.6-5.7,1.6c0,0,0,0,0,0c-0.2,0.1-0.4,0.3-0.5,0.4c-0.1,0.1-0.2,0.2-0.3,0.4c-0.5,0.5-0.8,1.1-1.1,1.7
		c-0.1,0.1-0.1,0.3-0.2,0.4c-0.3,0.7-0.5,1.4-0.6,2.2c-0.4,0.5-0.8,0.8-0.8,0.8s0.4,0.3,0.8,0.8c0,0.9,0.2,1.9,0.6,2.7
		c0.1,0.1,0.1,0.2,0.2,0.4c0.3,0.6,0.7,1.2,1.1,1.7c0.1,0.1,0.2,0.3,0.3,0.4c0.9,0.8,2,1.4,3.4,1.8c0,0,0,0,0,0
		c0.8,0.2,1.7,0.3,2.8,0.3c0,0-0.1,0-0.1,0h8.2c-0.6-0.4-0.9-0.9-1-1.2c0-0.2-0.1-0.5-0.1-0.6c0,0,0.5-1.3,1.2-3h4.9
		c0.6,1.6,1.1,2.9,1.1,2.9c0.1,0.1,0,0.5-0.1,0.7C100.6,26.1,100.4,26.5,99.8,26.9z M95.3,20.8c0.7-1.6,1.4-3.4,1.9-4.8
		c0.5,1.2,1,2.6,1.6,4l0.3,0.8H95.3z"/>
	<path class="st0" d="M61.8,14.1v-2.4l-10.5,0c1.2,0.5,1.1,1.7,1.1,1.7l0,4.7C52,18.7,51.6,19,51.6,19s0.5,0.3,0.8,0.8l0,5.3
		c0,0.2,0,0.5-0.1,0.7c-0.1,0.3-0.4,0.8-1,1.2h10.4v-2.5c-0.2,1.1-1.5,1.1-1.5,1.1l-5,0l0-5.8l2.9,0c0,0,0.8-0.1,1.2,0.8v-2.8
		c-0.4,0.9-1.3,0.8-1.3,0.8l-2.8,0l0-5.5l5,0C60.2,13,61.4,12.9,61.8,14.1z"/>
	<path class="st0" d="M49.5,25.2l0-3.7l0,0c0,0,0-0.7,0-1.7c0.4-0.5,0.8-0.8,0.8-0.8s-0.5-0.3-0.8-0.8c0-1.9,0-4,0-4.8
		c0-0.2,0-0.4,0.1-0.5c0.1-0.3,0.4-0.7,1-1.1h-4.7c1.2,0.8,1.1,1.6,1.1,1.6l0,9.3l-7.1-11h-3.6c1.2,0.6,1.1,1.6,1.1,1.6l0,4.8
		C37,18.7,36.5,19,36.5,19s0.5,0.3,0.8,0.8l0,5.3c0,0.2,0,0.5-0.1,0.7c-0.1,0.3-0.4,0.8-1,1.2H41c-1.2-0.8-1.1-1.8-1.1-1.8l0-9.3
		l6.9,11.1h3.7C49.4,26.3,49.5,25.2,49.5,25.2z"/>
	<path class="st0" d="M34.6,18.2l0-4.8c0,0-0.1-1,1.1-1.6h-0.4h0h0c-0.1,0-1,0-1.8,0c-0.4,0-0.8,0-1.2,0c-0.4,0-0.7,0-0.9,0h-0.1
		h-0.5h-0.1c0.6,0.4,0.9,0.7,1,1.1c0,0.2,0.1,0.3,0.1,0.6c0,0.5,0,1,0,1.5c0,0.7,0,1.4,0,2.1c0,0.4,0,0.8,0,1.2
		C31.4,18.7,31,19,31,19s0.5,0.3,0.8,0.8c0,0.4,0,0.8,0,1.3c0,0.3,0,0.7,0,1c0,0.1,0,0.3,0,0.4c0,0.3-0.1,0.6-0.2,0.9
		c-0.1,0.4-0.3,0.8-0.5,1.2c-0.3,0.4-0.7,0.8-1.2,1.1c-0.5,0.3-1.1,0.5-1.7,0.5c-0.6,0-1.2-0.1-1.8-0.4c-0.5-0.2-0.9-0.6-1.2-1
		c-0.3-0.4-0.5-0.8-0.6-1.2c-0.1-0.3-0.1-0.6-0.2-0.9c0-0.2,0-0.4-0.1-0.5c0-0.3,0-0.7,0-1c0-0.4,0-0.8,0-1.2
		c0.3-0.5,0.8-0.8,0.8-0.8s-0.4-0.3-0.8-0.8c0-0.4,0-0.8,0-1.2c0-0.7,0-1.4,0-2.1c0-0.5,0-1,0-1.5c0,0,0-0.1,0-0.1
		c0-0.2,0.1-0.4,0.1-0.5c0.1-0.3,0.4-0.7,1-1.1h-0.1h-0.5h-0.1h-0.9h-1.2h-1.8h0h0h-0.4c1.2,0.6,1.1,1.6,1.1,1.6l0,4.8
		c-0.3,0.5-0.8,0.8-0.8,0.8s0.5,0.3,0.8,0.8l0,1.3c0,2,0.3,5,4,6c0.6,0.2,1.3,0.3,2.2,0.3c0.1,0,0.3,0,0.4,0c0.1,0,0.3,0,0.4,0
		c0.9,0,1.6-0.1,2.2-0.4c3.7-1,3.9-3.9,3.9-6l0-1.3c0.3-0.5,0.8-0.8,0.8-0.8S35,18.7,34.6,18.2z"/>
	<path class="st0" d="M10.1,7.6L10.1,7.6h-1l0,0H7L6.7,3.1c0-0.2,0-0.4-0.1-0.6C6.8,2.3,7,2,7,1.7c0-0.6-0.5-1.1-1.1-1.1
		c-0.6,0-1.1,0.5-1.1,1.1C4.9,2,5,2.3,5.3,2.5C5.2,2.7,5.2,2.9,5.2,3.1L4.9,7.6H1.6c0,0,0,0,0,0L0.5,8.7l1.1,1.1l1.1-1.1h0.7
		C3.7,9.1,4,9.6,4,10.1c0,1.6,0,5.4,0,8.1C3.6,18.7,3.2,19,3.2,19s0.4,0.3,0.8,0.8c0,0.5,0,0.9,0,1.2c0,0,0.2,9.2-0.6,10.8
		c0,0,1.9,3.2,2.6,4.2c0,0,2-3.2,2.6-4.2C7.6,30,7.7,21,7.7,21V10.1c0-0.6,0.3-1,0.6-1.4H9l1.1,1.1l1.1-1.1L10.1,7.6z"/>
	<path class="st0" d="M112.2,11.7l-7.2,0c0,0,0,0,0,0h0c0,0,1.2,0.5,1.2,1.6c0,0.5,0,2.5,0,4.9c-0.3,0.5-0.8,0.8-0.8,0.8
		s0.4,0.3,0.8,0.8c0,1.3,0,2.4,0,2.8c0,0,0,0.1,0,0.2c0,2.6,0,4.8,0,5.1l0,0c0,1.9-0.1,3.6-0.4,4c0,0,0,0,0,0c0,0,0,0,0,0
		c0,0,1.3,2,1.8,2.6c0,0,1.4-1.9,1.8-2.6c0,0,0,0,0,0c0,0,0,0,0,0c-0.2-0.4-0.3-2.1-0.4-4l0-6.1h1c0.1,0,0.3,0,0.4,0h0.5l0,0
		c2.4-0.1,7.2-0.9,7.2-5.3C118.2,11.6,112.2,11.7,112.2,11.7z M114.9,16.7c0,1.3-1.1,3.5-3.9,3.5h-2l0-0.7l0-3.7l0-2.7
		c0-0.5,1.4-0.4,1.7-0.4C115.1,12.9,114.9,16.7,114.9,16.7z"/>
</g>
</svg>
